<svg viewBox="0 0 512 512" xmlns="http://www.w3.org/2000/svg" fill-rule="evenodd" clip-rule="evenodd" stroke-linejoin="round" stroke-miterlimit="1.4">
  <circle cx="256" cy="256" r="249" fill="#333"/>
  <path d="M168 236.3a52.8 52.8 0 0 1-27.1-7 46.6 46.6 0 0 1-18.2-19.4 63.2 63.2 0 0 1-6.5-29.1v-40.9c0-11 2.2-20.8 6.5-29.2a47 47 0 0 1 18.2-19.5c7.8-4.6 16.8-7 27.1-7 8.6 0 16.4 1.8 23.6 5.3a49 49 0 0 1 18 14.8c4.8 6.4 8 13.8 9.7 22.2h-14.7A39.3 39.3 0 0 0 168 98a34.8 34.8 0 0 0-32.5 20c-3 6.2-4.5 13.6-4.5 21.9v40.9c0 8.3 1.5 15.6 4.6 22a34.4 34.4 0 0 0 32.4 19.7 37.2 37.2 0 0 0 28.6-13.2 39 39 0 0 0 8-15.2h14.7c-1.7 8.4-5 15.7-9.8 22.1a49.5 49.5 0 0 1-18 14.8 53 53 0 0 1-23.5 5.3zM312.1 167.3c0-8.6-2.3-15.2-6.9-20-4.6-4.7-11.1-7.1-19.6-7.1a46 46 0 0 0-27.8 9.4l-10.7-7.4c4-4.8 9.3-8.6 16-11.3 6.5-2.7 13.8-4 21.9-4 8.8 0 16.3 1.5 22.6 4.6 6.3 3.2 11 7.7 14.3 13.6 3.3 5.9 5 13 5 21.3v68.3H312v-67.4zm-31.1 69c-12.4 0-22-3-28.9-8.7a30 30 0 0 1-10.2-24.2c0-10 3-17.8 9.3-23.3 6.3-5.5 15.1-8.3 26.5-8.3H313l1.5 13.8h-36.7a24 24 0 0 0-15.8 4.6 16.2 16.2 0 0 0-5.6 13.2c0 6 2.3 10.6 7 14a34 34 0 0 0 19.8 5c9.2 0 16.3-1 21.3-2.8 5-1.9 7.6-4.5 7.6-7.8l2.2 13.9c-2.2 2.2-4.9 4-8.2 5.7a45.8 45.8 0 0 1-11.3 3.6 73 73 0 0 1-13.8 1.2zM373.3 206.8c0 4.5 1.2 8 3.4 10.5 2.2 2.4 5.3 3.7 9.2 3.7h9.9v13.7h-12.3c-8 0-14-2.4-18.4-7.4-4.3-4.9-6.5-11.8-6.5-20.7V85.8h14.7v121zM108.6 251.9h9V342h-9v-90.1zm-54.9 0h9V342h-9v-90.1zm6 41.3h53.8v8.6H59.7v-8.6zM178 301.2c0-5.2-1.3-9.2-4.1-12.1-2.8-2.9-6.8-4.3-12-4.3a27.9 27.9 0 0 0-16.7 5.7l-6.5-4.5c2.4-3 5.6-5.2 9.6-6.8 4-1.7 8.4-2.5 13.3-2.5 5.4 0 10 1 13.7 2.9 3.8 1.8 6.7 4.6 8.7 8.1 2 3.6 3 8 3 13V342h-9v-40.8zM159.2 343c-7.5 0-13.3-1.7-17.5-5.2a18.1 18.1 0 0 1-6.2-14.7c0-6 2-10.7 5.7-14 3.8-3.4 9.1-5 16-5h21.4l.9 8.3h-22.2c-4.2 0-7.3.9-9.6 2.8a9.8 9.8 0 0 0-3.4 8c0 3.6 1.4 6.4 4.3 8.4 2.8 2 6.8 3 12 3a39 39 0 0 0 12.9-1.7c3-1 4.5-2.7 4.5-4.7l1.4 8.4c-1.3 1.4-3 2.5-5 3.5s-4.3 1.7-6.9 2.2c-2.5.5-5.3.7-8.3.7zM215.1 325c0 2.8.7 5 2 6.4a7.1 7.1 0 0 0 5.6 2.3h6v8.3h-7.4a14 14 0 0 1-11.2-4.5c-2.6-3-4-7.1-4-12.5v-73.1h9V325zM271.8 343c-5.2 0-9.6-1-13.1-2.6-3.5-1.8-6-4.6-7.7-8.5l.9-13.5c0 2.9.6 5.6 2 8.1a15.6 15.6 0 0 0 14.4 8.7 16 16 0 0 0 12.4-4.8c3-3.2 4.4-7.7 4.4-13.4v-14c0-5.9-1.5-10.5-4.4-13.7a16 16 0 0 0-12.5-4.9A15.7 15.7 0 0 0 254 293c-1.4 2.5-2 5.1-2 8l-1.3-12.5c2.2-4.2 5.2-7.2 8.9-9 3.7-1.9 8-2.8 12.9-2.8a19.3 19.3 0 0 1 19 12c1.8 4 2.6 8.7 2.6 14.3v14c0 5.4-.8 10-2.6 14a19.4 19.4 0 0 1-7.6 8.9c-3.3 2-7.4 3-12 3zM243 251.8h8.9V342h-9v-90.1zM338.4 343c-6 0-11-1.2-15.3-3.4a22.6 22.6 0 0 1-9.6-9.9 33.9 33.9 0 0 1-3.4-15.6V307a38 38 0 0 1 3.2-16.3c2.2-4.6 5.3-8 9.3-10.3 4-2.4 9-3.6 14.6-3.6a26 26 0 0 1 13.8 3.5c3.8 2.3 6.7 5.7 8.7 10.1 2 4.5 3 9.8 3 16v7.4h-46.5v-8h38.2v-.6a22 22 0 0 0-4.5-14.8c-3-3.5-7.2-5.3-12.7-5.3-6 0-10.6 1.9-13.8 5.6a22.8 22.8 0 0 0-5 15.6v8.2c0 6.4 1.8 11.4 5.3 15 3.4 3.5 8.3 5.2 14.7 5.2 3 0 5.9-.6 8.8-1.8 2.9-1.3 5.5-3 7.8-5.3l6 5.8a34.3 34.3 0 0 1-22.6 9.6zM380 277.7h9V342h-9v-64.3zm38 11.5c-1.4-1.4-3-2.4-5-3.1-2-.7-4.4-1-7-1-5.4 0-9.6 1.4-12.5 4.2-3 3-4.5 6.9-4.5 12l-1.3-12.4a25 25 0 0 1 21.8-12.2c3 0 5.6.5 8 1.3 2.4.8 4.4 2.1 6.2 3.8l-5.8 7.4zM451 342.3c-5.2 0-9-1.4-11.5-4.3-2.4-2.9-3.6-7.1-3.6-12.7v-66.4h9v66.5c0 2.8.6 4.9 1.8 6.4 1.2 1.5 3 2.2 5.5 2.2h6.1v8.3H451zm-21.7-64.6h29v7.6h-29v-7.6z" fill="#fff" fill-rule="nonzero"/>
</svg>
